<svg id="Layer_1" enable-background="new 0 0 512 512" height="512" viewBox="0 0 512 512" width="512" xmlns="http://www.w3.org/2000/svg"><g><g><path clip-rule="evenodd" d="m156.693 259.444c2.324-32.258 29.224-57.684 62.076-57.684s59.752 25.426 62.076 57.684c9.014-8.759 21.316-14.145 34.865-14.145 27.608 0 50.001 22.365 50.001 49.974 0 14.825-6.463 28.147-16.695 37.303 26.304 3.997 46.656 26.872 46.656 54.254v17.319c20.182-32.144 31.888-70.185 31.888-110.946 0-27.184-5.215-53.149-14.654-76.959-4.762.652-9.609.992-14.541.992-57.229 0-103.63-46.374-103.63-103.604 0-4.932.34-9.808 1.02-14.541-23.838-9.468-49.802-14.655-76.985-14.655-115.308 0-208.762 93.485-208.762 208.768 0 40.761 11.678 78.802 31.888 110.946v-17.319c0-27.382 20.323-50.257 46.656-54.254-10.261-9.156-16.695-22.478-16.695-37.303 0-27.609 22.364-49.974 49.972-49.974 13.577-.001 25.878 5.385 34.864 14.144z" fill="#ccf5fc" fill-rule="evenodd"/></g><g><path clip-rule="evenodd" d="m218.769 326.227c15.93 0 30.443-5.981 41.469-15.817 12.755-11.395 20.777-27.977 20.777-46.431 0-1.502-.057-3.033-.17-4.535-2.324-32.258-29.224-57.684-62.076-57.684s-59.752 25.426-62.076 57.684c-.113 1.502-.17 3.033-.17 4.535 0 18.453 8.05 35.036 20.805 46.431 10.998 9.836 25.539 15.817 41.441 15.817z" fill="#ffdcd5" fill-rule="evenodd"/></g><g><path clip-rule="evenodd" d="m219.109 502c35.942-.057 69.729-9.184 99.208-25.228v-98.786c0-11.99-3.118-23.272-8.589-33.08-10.091-18.141-28.232-31.266-49.491-34.497-11.026 9.836-25.539 15.817-41.469 15.817-15.902 0-30.443-5.981-41.441-15.817-21.259 3.231-39.4 16.356-49.519 34.497-5.471 9.808-8.589 21.089-8.589 33.08v98.786c29.507 16.044 63.295 25.171 99.208 25.228h.34z" fill="#ff7d97" fill-rule="evenodd"/></g><g><path clip-rule="evenodd" d="m127.809 344.907c10.119-18.141 28.26-31.266 49.519-34.497-12.755-11.395-20.805-27.977-20.805-46.431 0-1.502.057-3.033.17-4.535-8.985-8.759-21.287-14.145-34.865-14.145-27.608 0-49.972 22.365-49.972 49.974 0 14.825 6.434 28.147 16.695 37.303 8.844 7.909 20.494 12.699 33.277 12.699 2.041 0 4.025-.113 5.981-.368z" fill="#ffdcd5" fill-rule="evenodd"/></g><g><path clip-rule="evenodd" d="m119.22 476.772v-98.786c0-11.99 3.118-23.272 8.589-33.08-.794.113-1.616.17-2.409.227-1.19.085-2.381.142-3.571.142-3.742 0-7.426-.425-10.998-1.219-8.419-1.899-16.043-5.924-22.279-11.48-26.333 3.997-46.656 26.872-46.656 54.254v17.319c19.047 30.359 45.72 55.446 77.324 72.623z" fill="#ffcd69" fill-rule="evenodd"/></g><g><path clip-rule="evenodd" d="m349.015 332.576c10.233-9.156 16.695-22.478 16.695-37.303 0-27.609-22.393-49.974-50.001-49.974-13.549 0-25.851 5.386-34.865 14.145.113 1.502.17 3.033.17 4.535 0 18.453-8.022 35.036-20.777 46.431 21.259 3.231 39.4 16.356 49.491 34.497 1.956.255 3.968.368 5.981.368 12.784 0 24.462-4.79 33.306-12.699z" fill="#ffdcd5" fill-rule="evenodd"/></g><g><path clip-rule="evenodd" d="m318.317 476.772c31.605-17.178 58.278-42.264 77.354-72.622v-17.319c0-27.382-20.352-50.257-46.656-54.254-8.844 7.909-20.522 12.699-33.306 12.699-2.013 0-4.025-.113-5.981-.368 5.471 9.808 8.589 21.089 8.589 33.08z" fill="#ffcd69" fill-rule="evenodd"/></g><g><path clip-rule="evenodd" d="m341.39 113.633c0-31.464 25.511-56.975 56.974-56.975 15.732 0 29.961 6.378 40.278 16.696 10.289 10.29 16.667 24.548 16.667 40.28 0 31.436-25.482 56.947-56.945 56.947-15.732 0-29.961-6.378-40.278-16.667-10.319-10.32-16.696-24.549-16.696-40.281zm71.515 102.612c50.341-7.087 89.089-50.314 89.089-102.612-.001-57.231-46.402-103.633-103.631-103.633-52.297 0-95.551 38.749-102.609 89.091-.68 4.734-1.02 9.609-1.02 14.541 0 57.23 46.401 103.604 103.63 103.604 4.932.001 9.779-.339 14.541-.991z" fill="#ff7d97" fill-rule="evenodd"/></g><g><path d="m41.895 414.15c-5.523 0-10-4.477-10-10v-17.319c0-31.794 23.712-59.369 55.156-64.141 5.462-.827 10.559 2.926 11.387 8.386.829 5.46-2.926 10.559-8.386 11.387-21.753 3.302-38.157 22.375-38.157 44.367v17.319c0 5.524-4.477 10.001-10 10.001z"/></g><g><path d="m511.993 113.633c0-62.657-50.974-113.633-113.63-113.633-53.02 0-97.671 36.504-110.152 85.698-22.282-7.469-45.585-11.262-69.443-11.262-43.49 0-85.511 12.738-121.522 36.838-4.59 3.072-5.82 9.283-2.749 13.873 1.929 2.882 5.094 4.439 8.32 4.439 1.912 0 3.845-.547 5.553-1.69 32.708-21.889 70.883-33.459 110.398-33.459 22.815 0 45.06 3.811 66.243 11.313-.179 2.605-.278 5.233-.278 7.883 0 62.642 50.975 113.604 113.63 113.604 2.645 0 5.266-.098 7.866-.277 7.512 21.248 11.329 43.494 11.329 66.244 0 26.511-5.235 51.817-14.696 74.963-5.54-18.121-18.893-33.186-36.302-40.816 5.787-9.158 9.15-19.994 9.15-31.606 0-32.715-26.627-59.331-59.357-59.331-9.815 0-19.289 2.383-27.746 6.861-9.153-28.914-36.241-49.933-68.154-49.933-31.911 0-58.998 21.017-68.153 49.928-8.444-4.476-17.917-6.856-27.748-6.856-32.714 0-59.329 26.616-59.329 59.331 0 29.718 21.942 54.401 50.468 58.694-2.339 7.35-3.612 15.127-3.612 23.132v83.295c-55.318-35.336-92.073-97.285-92.073-167.662 0-39.196 11.402-77.121 32.974-109.674 3.051-4.604 1.792-10.809-2.812-13.86s-10.81-1.791-13.86 2.812c-23.748 35.839-36.301 77.584-36.301 120.722 0 58.442 22.753 113.386 64.068 154.71 41.318 41.327 96.256 64.086 154.694 64.086 58.439 0 113.382-22.759 154.707-64.085 41.324-41.326 64.083-96.27 64.083-154.71 0-23.799-3.798-47.101-11.278-69.441 49.201-12.473 85.712-57.117 85.712-110.131zm-291.54 99.495c28.499 0 51.685 23.174 51.685 51.659 0 28.5-23.186 51.687-51.685 51.687s-51.685-23.186-51.685-51.687c-.001-28.485 23.185-51.659 51.685-51.659zm-95.901 122.19c-21.804 0-39.543-17.752-39.543-39.573 0-21.805 17.739-39.545 39.543-39.545 8.984 0 17.514 2.976 24.433 8.445 0 .047-.004.094-.004.142 0 15.047 4.685 29.015 12.658 40.544-15.212 5.955-28.048 16.587-36.841 29.983-.082.001-.162.004-.246.004zm184.488 134.976c-27.104 13.873-57.79 21.706-90.271 21.706-31.145 0-60.635-7.209-86.903-20.035v-94.393c0-26.854 19.036-50.321 44.918-56.263 12.087 9.361 27.233 14.952 43.669 14.952s31.583-5.591 43.67-14.952c25.881 5.939 44.917 29.406 44.917 56.264zm7.066-134.983c-8.792-13.396-21.628-24.027-36.839-29.98 7.972-11.529 12.657-25.496 12.657-40.543 0-.051-.004-.1-.004-.151 6.947-5.463 15.477-8.436 24.433-8.436 21.82 0 39.572 17.74 39.572 39.545 0 10.966-4.486 20.903-11.717 28.077-1.303.717-2.438 1.714-3.313 2.931-6.751 5.355-15.276 8.564-24.542 8.564-.085 0-.163-.006-.247-.007zm12.719 123.358v-81.098c0-8.005-1.272-15.781-3.611-23.132 9.853-1.481 18.919-5.395 26.57-11.105 19.594 4.993 33.887 22.972 33.887 43.496v14.208c-14.824 22.862-34.194 42.514-56.846 57.631zm69.538-251.432c-51.628 0-93.63-41.991-93.63-93.604 0-51.629 42.002-93.633 93.63-93.633s93.63 42.003 93.63 93.633c0 51.613-42.002 93.604-93.63 93.604z"/><path d="m446.435 67.089c-.224-.278-.463-.549-.722-.807-.256-.256-.524-.493-.799-.716-12.057-11.691-28.473-18.909-46.55-18.909-36.93 0-66.974 30.045-66.974 66.976 0 18.078 7.217 34.493 18.908 46.551.223.276.46.543.716.8.258.258.528.497.806.721 12.06 11.671 28.471 18.875 46.543 18.875 36.914 0 66.945-30.032 66.945-66.947.001-18.072-7.203-34.483-18.873-46.544zm-95.045 46.544c0-25.902 21.072-46.976 46.974-46.976 9.337 0 18.039 2.753 25.358 7.474l-64.858 64.86c-4.722-7.319-7.474-16.021-7.474-25.358zm46.973 46.947c-9.333 0-18.031-2.745-25.35-7.454l64.841-64.843c4.709 7.319 7.454 16.017 7.454 25.35.001 25.887-21.059 46.947-46.945 46.947z"/><path d="m71.119 155.607c2.559 0 5.119-.976 7.071-2.929l.028-.028c3.905-3.905 3.891-10.223-.014-14.128-3.905-3.904-10.25-3.891-14.157.014-3.905 3.905-3.905 10.237 0 14.143 1.953 1.952 4.513 2.928 7.072 2.928z"/></g></g></svg>