<svg height="512pt" viewBox="-14 0 511 512" width="512pt" xmlns="http://www.w3.org/2000/svg"><path d="m423.058594 447.921875v10.976563c0 7.722656-6.261719 13.984374-13.988282 13.984374h-335.867187c-7.21875 0-13.066406-5.847656-13.066406-13.066406v-11.894531h-52.136719v19.074219c0 20.714844 16.800781 37.503906 37.519531 37.503906h392.152344c20.722656 0 37.519531-16.789062 37.519531-37.503906v-19.074219zm0 0" fill="#4f7693"/><path d="m367.695312 476.402344h-250.667968c-12.042969 0-21.808594-9.761719-21.808594-21.804688v-4.871094c0-.996093.808594-1.804687 1.808594-1.804687h290.667968c.996094 0 1.804688.808594 1.804688 1.804687v4.871094c0 12.042969-9.761719 21.804688-21.804688 21.804688zm0 0" fill="#ffae85"/><path d="m387.695312 447.921875h-290.667968c-1 0-1.808594.808594-1.808594 1.804687v4.875c0 1.382813.144531 2.730469.390625 4.039063h254.261719c8.460937 0 14.9375 7.832031 13.011718 16.066406-.167968.707031-.367187 1.289063-.609374 1.695313h5.417968c12.042969 0 21.808594-9.761719 21.808594-21.800782v-4.875c0-.996093-.808594-1.804687-1.804688-1.804687zm0 0" fill="#ea9e7d"/><path d="m60.136719 363.058594h-34.410157l2.785157-20.449219 1.753906-12.84375 26.6875 1.632813 1.085937 10.804687zm0 0" fill="#fedfc5"/><path d="m145.1875 421.609375-34.925781.121094-47.589844-56.972657c-10.835937-7.988281-25.425781-8.65625-36.949219-1.691406l-4.269531 2.578125c-4.714844 2.851563-7.761719 7.808594-8.167969 13.304688l-5.285156 68.972656h52.132812v-36.75l35.085938 36.835937h69.707031v-1.617187c.003907-11.851563-8.183593-22.128906-19.738281-24.78125zm0 0" fill="#ff84a7"/><path d="m58.039062 342.203125c-4.410156 2.675781-9.582031 4.214844-15.109374 4.214844-5.25 0-10.167969-1.378907-14.417969-3.8125l1.753906-12.839844 26.6875 1.632813zm0 0" fill="#fecbaa"/><path d="m74.464844 279.515625v27.761719c0 16.09375-13.050782 29.136718-29.140625 29.136718-11.648438 0-21.699219-6.820312-26.363281-16.691406-1.785157-3.769531-2.785157-7.996094-2.785157-12.445312v-27.761719c0-11.625 9.429688-21.039063 21.046875-21.039063h16.203125c10.484375 0 19.164063 7.652344 20.765625 17.683594.179688 1.097656.273438 2.210938.273438 3.355469zm0 0" fill="#fedfc5"/><path d="m74.191406 276.164062-30.863281 12.210938c-2.628906 1.035156-4.351563 3.578125-4.351563 6.394531v7.328125c0 2.25-1.09375 4.347656-2.929687 5.636719l-17.085937 11.988281c-1.785157-3.769531-2.785157-7.996094-2.785157-12.445312v-27.761719c0-11.625 9.429688-21.039063 21.046875-21.039063h16.203125c10.484375 0 19.164063 7.652344 20.765625 17.6875zm0 0" fill="#c97f4c"/><path d="m457.46875 363.058594h-34.414062l1.613281-16.023438 1.570312-15.636718 26.6875-1.632813 2.039063 14.910156zm0 0" fill="#fedfc5"/><path d="m475.191406 447.921875-5.285156-68.972656c-.40625-5.496094-3.449219-10.453125-8.167969-13.304688l-4.269531-2.578125c-11.523438-6.964844-26.109375-6.296875-36.949219 1.691406l-47.585937 56.972657-34.929688-.121094c-11.550781 2.652344-19.738281 12.933594-19.738281 24.78125v1.617187h69.707031l35.085938-36.835937v36.75zm0 0" fill="#83d9ff"/><path d="m454.964844 344.675781c-4.796875 3.476563-10.707032 5.535157-17.09375 5.535157-4.757813 0-9.25-1.136719-13.203125-3.175782l1.574219-15.636718 26.6875-1.632813zm0 0" fill="#fecbaa"/><path d="m467.019531 279.515625v27.761719c0 4.449218-1.003906 8.675781-2.789062 12.445312-4.664063 9.871094-14.710938 16.691406-26.359375 16.691406-16.09375 0-29.140625-13.042968-29.140625-29.136718v-27.757813c0-1.148437.089843-2.261719.273437-3.355469 1.601563-10.035156 10.28125-17.6875 20.765625-17.6875h16.210938c11.621093 0 21.039062 9.417969 21.039062 21.039063zm0 0" fill="#fedfc5"/><path d="m467.019531 279.515625v27.761719c0 4.449218-1.003906 8.675781-2.789062 12.445312l-17.082031-11.988281c-1.835938-1.289063-2.929688-3.386719-2.929688-5.636719v-7.328125c0-2.816406-1.726562-5.359375-4.351562-6.394531l-30.863282-12.214844c1.601563-10.03125 10.28125-17.683594 20.765625-17.683594h16.210938c11.621093 0 21.039062 9.417969 21.039062 21.039063zm0 0" fill="#c97f4c"/><path d="m210.503906 83.699219v117.871093c0 3.414063-1.238281 6.535157-3.285156 8.957032-2.542969 3.011718-6.347656 4.925781-10.605469 4.925781h-108.5625c-2.421875 0-4.621093 1.417969-5.585937 3.628906-3.742188 8.613281-12.328125 14.636719-22.328125 14.636719-9.996094 0-18.585938-6.023438-22.335938-14.636719-.964843-2.210937-3.164062-3.628906-5.578125-3.628906h-2.160156c-7.675781 0-13.890625-6.222656-13.890625-13.882813v-117.871093c0-7.671875 6.214844-13.882813 13.890625-13.882813h166.550781c7.675781 0 13.890625 6.210938 13.890625 13.882813zm0 0" fill="#a7c7d3"/><path d="m467.324219 83.699219v117.871093c0 7.660157-6.214844 13.882813-13.890625 13.882813h-2.160156c-2.414063 0-4.613282 1.421875-5.578126 3.628906-3.75 8.617188-12.339843 14.636719-22.335937 14.636719-9.988281 0-18.574219-6.019531-22.328125-14.636719-.960938-2.210937-3.164062-3.628906-5.578125-3.628906h-108.570313c-5.636718 0-10.492187-3.363281-12.671874-8.1875-.78125-1.734375-1.21875-3.667969-1.21875-5.695313v-117.871093c0-7.671875 6.214843-13.882813 13.890624-13.882813h166.550782c7.675781 0 13.890625 6.210938 13.890625 13.882813zm0 0" fill="#a7c7d3"/><path d="m343.617188 7.5h-208.835938c-9.625 0-17.425781 7.796875-17.425781 17.417969v143.125c0 9.617187 7.800781 17.417969 17.425781 17.417969h69.417969c3.027343 0 5.789062 1.773437 6.996093 4.550781 4.699219 10.800781 15.46875 18.351562 28.003907 18.351562 12.535156 0 23.304687-7.550781 28.003906-18.351562 1.207031-2.777344 3.96875-4.550781 6.996094-4.550781h69.417969c9.621093 0 17.421874-7.800782 17.421874-17.417969v-143.125c.003907-9.621094-7.796874-17.417969-17.421874-17.417969zm0 0" fill="#e9edf1"/><path d="m210.503906 83.699219v117.871093c0 3.414063-1.238281 6.535157-3.285156 8.957032-2.960938-2.886719-5.546875-6.203125-7.65625-9.859375h-64.777344c-18 0-32.640625-14.636719-32.640625-32.625v-98.226563h94.46875c7.675781 0 13.890625 6.210938 13.890625 13.882813zm0 0" fill="#89b4c9"/><path d="m376.253906 69.816406v98.226563c0 17.988281-14.640625 32.625-32.640625 32.625h-64.769531c-1.359375 2.351562-2.910156 4.558593-4.632812 6.597656-.78125-1.734375-1.21875-3.667969-1.21875-5.695313v-117.871093c0-7.671875 6.214843-13.882813 13.890624-13.882813zm0 0" fill="#89b4c9"/><path d="m343.617188 7.5h-208.835938c-9.625 0-17.425781 7.796875-17.425781 17.417969v143.125c0 9.617187 7.800781 17.417969 17.425781 17.417969h69.417969c3.027343 0 5.789062 1.773437 6.996093 4.550781 4.699219 10.800781 15.46875 18.351562 28.003907 18.351562 12.535156 0 23.304687-7.550781 28.003906-18.351562 1.207031-2.777344 3.96875-4.550781 6.996094-4.550781h69.417969c9.621093 0 17.421874-7.800782 17.421874-17.417969v-143.125c.003907-9.621094-7.796874-17.417969-17.421874-17.417969zm0 0" fill="#e9edf1"/><path d="m210.144531 369.617188c2.917969-.984376 5.523438-2.554688 7.683594-4.5625 4.230469-3.953126 6.785156-9.546876 6.785156-15.597657v-19.660156h35.496094v19.660156c0 5.617188 2.191406 10.84375 5.902344 14.71875 2.3125 2.429688 5.230469 4.328125 8.566406 5.441407zm0 0" fill="#fedfc5"/><path d="m260.109375 329.796875v12.628906l-8.082031 4.925781c-5.941406 3.617188-13.402344 3.617188-19.335938 0l-8.078125-4.925781v-12.628906zm0 0" fill="#fecbaa"/><path d="m277.042969 267.4375v43.0625c0 6.496094-3.386719 12.527344-8.921875 15.902344l-16.09375 9.800781c-5.941406 3.617187-13.402344 3.617187-19.335938 0l-16.089844-9.800781c-5.546874-3.375-8.921874-9.40625-8.921874-15.902344v-43.0625c0-11.847656 9.589843-21.445312 21.414062-21.445312h26.523438c11.832031 0 21.425781 9.597656 21.425781 21.445312zm0 0" fill="#fedfc5"/><path d="m255.617188 245.992188h-16.230469c11.835937 0 21.425781 9.597656 21.425781 21.445312v43.0625c0 6.496094-3.386719 12.527344-8.921875 15.902344l-16.09375 9.800781c-.503906.308594-1.027344.582031-1.554687.835937 5.644531 2.746094 12.351562 2.472657 17.785156-.835937l16.089844-9.800781c5.539062-3.375 8.925781-9.40625 8.925781-15.902344v-43.0625c0-11.847656-9.59375-21.445312-21.425781-21.445312zm0 0" fill="#fecbaa"/><path d="m277.042969 267.4375v20.003906l-46.003907-14.804687-23.359374 12.191406v-17.394531c0-11.847656 9.59375-21.445313 21.414062-21.445313h26.523438c11.832031.003907 21.425781 9.601563 21.425781 21.449219zm0 0" fill="#618aaa"/><path d="m255.570312 245.992188h-16.230468c11.835937 0 21.425781 9.597656 21.425781 21.445312v14.78125l16.230469 5.222656v-20.003906c0-11.847656-9.59375-21.445312-21.425782-21.445312zm0 0" fill="#4f7693"/><path d="m169.984375 447.925781v-36.054687c0-17.171875 10.945313-32.421875 27.207031-37.898438l12.953125-4.355468c2.921875-.980469 5.519531-2.558594 7.679688-4.566407 6.953125 2.519531 15.136719 4.222657 24.394531 4.023438 9.109375-.195313 17.078125-2.195313 23.789062-4.894531 2.320313 2.429687 5.234376 4.320312 8.570313 5.4375l12.953125 4.355468c16.253906 5.476563 27.207031 20.726563 27.207031 37.898438v36.054687zm0 0" fill="#69d998"/><path d="m241.519531 369.191406-15.230469 53.816406c-.390624 1.386719-.046874 2.878907.917969 3.953126l11.335938 12.632812c1.617187 1.800781 4.417969 1.871094 6.121093.152344l12.613282-12.710938c1.097656-1.105468 1.496094-2.730468 1.027344-4.21875zm0 0" fill="#3dc5a1"/><path d="m482.675781 447.617188c-.003906-.089844 0-.179688-.003906-.269532l-5.285156-68.953125c-.585938-7.902343-4.984375-15.070312-11.769531-19.167969l-1.203126-.726562-3.140624-23.050781c4.058593-3.375 7.378906-7.605469 9.679687-12.417969.082031-.167969.160156-.335938.230469-.507812 2.136718-4.644532 3.339844-9.808594 3.339844-15.246094v-27.761719c0-15.738281-12.808594-28.539063-28.546876-28.539063h-16.207031c-13.34375 0-24.574219 9.203126-27.6875 21.589844-.121093.234375-.234375.472656-.332031.722656-.515625 1.300782-.632812 2.652344-.429688 3.9375-.058593.753907-.097656 1.515626-.097656 2.285157v27.765625c0 12.894531 6.703125 24.246094 16.804688 30.777344l-2.085938 20.769531c-.429687.332031-.832031.703125-1.179687 1.121093l-45.328125 54.273438-31.402344-.113281c-.605469-.007813-1.148438.0625-1.707031.191406-5.570313 1.28125-10.511719 3.894531-14.535157 7.460937v-10.253906c0-20.402344-12.988281-38.492187-32.320312-45.011718l-12.964844-4.363282c-2.105468-.703125-4.011718-1.910156-5.53125-3.507812-2.460937-2.566406-3.816406-5.957032-3.816406-9.539063v-13.960937l4.410156-2.683594c7.722656-4.707031 12.523438-13.253906 12.523438-22.304688v-22.964843c0-.023438 0-.046875 0-.070313v-20.03125c0-15.960937-12.976563-28.949218-28.925782-28.949218h-26.519531c-15.949219 0-28.921875 12.988281-28.921875 28.949218v17.269532.023437 25.773437c0 9.050782 4.796875 17.597657 12.523438 22.304688l4.414062 2.691406v13.957032c0 3.820312-1.605468 7.503906-4.390625 10.101562-1.433593 1.335938-3.101562 2.324219-4.972656 2.949219l-12.949219 4.355469c-19.332031 6.519531-32.320312 24.605468-32.320312 45.015624v10.828126c-4.132813-3.859376-9.300782-6.6875-15.164063-8.035157-.558593-.128906-1.097656-.195312-1.707031-.191406l-31.402344.109375-45.328125-54.269531c-.347656-.417969-.746093-.792969-1.179687-1.125l-2.085938-20.769531c10.101563-6.53125 16.808594-17.882813 16.808594-30.777344v-27.761719c0-.773437-.042969-1.53125-.101562-2.289063.203124-1.285156.085937-2.636718-.425782-3.933593-.101562-.25-.210937-.492188-.335937-.722657-3.109375-12.390624-14.339844-21.59375-27.6875-21.59375h-16.199219c-15.742188 0-28.546875 12.804688-28.546875 28.539063v27.761719c0 5.441406 1.199219 10.601562 3.335937 15.246094.070313.171874.148438.34375.230469.511718 2.300781 4.808594 5.621094 9.039063 9.679688 12.414063l-3.140625 23.054687-1.199219.726563c-6.785156 4.097656-11.1875 11.265625-11.769531 19.148437l-5.285156 68.972656c-.007813.089844-.003907.179688-.007813.269532-.003906.101562-.015625.199218-.015625.304687v19.074219c0 24.8125 20.195312 45 45.019531 45h392.152344c24.824219 0 45.019531-20.1875 45.019531-45.003906v-19.074219c0-.105469-.011718-.203125-.015625-.304687zm-52.90625-181.640626h16.207031c7.46875 0 13.546876 6.074219 13.546876 13.539063v27.742187l-7.804688-5.476562v-7.007812c0-5.9375-3.570312-11.1875-9.09375-13.371094l-24.035156-9.511719c2.441406-3.566406 6.539062-5.914063 11.179687-5.914063zm-13.546875 21.109376 20.496094 8.109374v6.90625c0 4.679688 2.285156 9.082032 6.121094 11.773438l11.152344 7.824219c-3.964844 4.425781-9.722657 7.214843-16.121094 7.214843-11.9375 0-21.648438-9.707031-21.648438-21.636718zm21.652344 56.828124c3.195312 0 6.296875-.414062 9.253906-1.1875l1.207032 8.855469c-5.492188-1.117187-11.140626-1.085937-16.597657.085938l.816407-8.144531c1.738281.253906 3.511718.390624 5.320312.390624zm-98.957031 85.195313 33.988281.121094h.027344c2.222656 0 4.332031-.984375 5.753906-2.691407l46.972656-56.238281c8.34375-5.742187 19.214844-6.085937 27.929688-.816406l4.269531 2.578125c2.632813 1.59375 4.339844 4.375 4.570313 7.460938l4.667968 60.898437h-36.539062v-26.25l4.511718-4.738281c2.859376-3 2.742188-7.746094-.257812-10.605469-2.996094-2.855469-7.746094-2.738281-10.601562.257813l-39.367188 41.335937h-58.066406c1.902344-5.4375 6.351562-9.71875 12.140625-11.3125zm-54.238281-48.402344c13.226562 4.460938 22.109374 16.839844 22.109374 30.796875v28.917969h-53.046874l10.195312-10.273437c1.957031-1.972657 2.664062-4.867188 1.832031-7.519532l-14.769531-47.191406c4.402344-.632812 8.738281-1.664062 12.988281-3.082031 2.355469 1.710937 4.976563 3.070312 7.75 3.996093zm-53.019532-36.753906c3.277344 1.40625 6.761719 2.113281 10.25 2.113281 3.484375 0 6.972656-.707031 10.25-2.113281v5.132813c0 3.644531.679688 7.195312 1.96875 10.5-4.105468.976562-8.289062 1.53125-12.523437 1.625-4.109375.085937-8.183594-.261719-12.191407-1.007813 1.460938-3.492187 2.246094-7.273437 2.246094-11.117187zm9.773438 51.132813 8.671875 27.707031-8.761719 8.824219-7.792969-8.683594zm-12.785156-141.96875h26.519531c7.679687 0 13.925781 6.257812 13.925781 13.949218v9.710938l-36.207031-11.648438c-1.910157-.613281-3.988281-.4375-5.769531.488282l-12.390626 6.46875v-5.019532c0-7.691406 6.246094-13.949218 13.921876-13.949218zm-13.921876 35.890624 16.550782-8.636718 37.816406 12.164062v17.597656c0 3.855469-2.042969 7.492188-5.328125 9.496094l-16.089844 9.804688c-3.558593 2.164062-7.976562 2.164062-11.53125 0l-16.089843-9.804688c-3.285157-2.003906-5.328126-5.640625-5.328126-9.496094zm-15.589843 91.703126 12.925781-4.351563c2.417969-.804687 4.683594-1.914063 6.777344-3.308594 4.097656 1.230469 8.273437 2.109375 12.5 2.621094l-13.347656 47.152344c-.703126 2.476562-.085938 5.136719 1.632812 7.050781l9.464844 10.546875h-52.058594v-28.917969c0-13.960937 8.882812-26.339844 22.105469-30.792968zm-153.816407-51.796876c-6.398437 0-12.152343-2.789062-16.121093-7.214843l11.15625-7.824219c3.832031-2.691406 6.121093-7.09375 6.121093-11.773438v-6.90625l20.492188-8.109374v20.191406c0 11.929687-9.710938 21.636718-21.648438 21.636718zm-8.101562-62.9375h16.203125c4.640625 0 8.742187 2.347657 11.183594 5.914063l-24.035157 9.511719c-5.523437 2.183594-9.09375 7.433594-9.09375 13.371094v7.007812l-7.804687 5.476562v-27.742187c0-7.464844 6.074219-13.539063 13.546875-13.539063zm8.101562 77.9375c1.804688 0 3.582032-.136718 5.316407-.390624l.820312 8.144531c-5.460937-1.171875-11.105469-1.199219-16.597656-.082031l1.207031-8.855469c2.957032.769531 6.058594 1.183593 9.253906 1.183593zm-24.554687 35.589844c.226563-3.066406 1.933594-5.847656 4.570313-7.441406l4.265624-2.578125c8.71875-5.269531 19.589844-4.921875 27.929688.816406l46.972656 56.238281c1.425782 1.707032 3.535156 2.691407 5.757813 2.691407h.023437l33.988282-.121094c5.789062 1.59375 10.242187 5.875 12.140624 11.3125h-58.0625l-39.371093-41.335937c-2.855469-3-7.601563-3.113282-10.601563-.257813s-3.113281 7.605469-.257812 10.605469l4.511718 4.738281v26.25h-36.535156zm446.925781 87.492188c0 16.542968-13.464844 30.003906-30.015625 30.003906h-392.15625c-16.550781 0-30.019531-13.460938-30.019531-30.003906v-11.574219h37.132812v1.835937c0 7.742188 2.921876 15.113282 8.222657 20.761719 1.476562 1.570313 3.46875 2.363281 5.46875 2.363281 1.839843 0 3.683593-.671874 5.132812-2.03125 3.019531-2.835937 3.167969-7.582031.332031-10.605468-2.679687-2.851563-4.15625-6.574219-4.15625-10.488282v-27.335937l20.085938 21.085937v3.59375c0 16.15625 13.148438 29.300782 29.3125 29.300782h31.589844c4.140625 0 7.5-3.355469 7.5-7.5 0-4.140625-3.359375-7.5-7.5-7.5h-31.589844c-7.585938 0-13.808594-5.929688-14.277344-13.394532h62.175782c.367187 0 .726562-.035156 1.082031-.085937h151.171875c.351562.050781.714844.085937 1.082031.085937h63.703125c-.472656 7.464844-6.691406 13.394532-14.277344 13.394532h-186.964844c-4.140624 0-7.5 3.359375-7.5 7.5 0 4.144531 3.359376 7.5 7.5 7.5h186.964844c16.160156 0 29.308594-13.144532 29.308594-29.300782v-4.875c0-.101562-.011719-.203124-.015625-.304687l18.574219-19.5v27.335937c0 3.914063-1.472656 7.636719-4.152344 10.488282-2.835938 3.023437-2.6875 7.769531.332031 10.605468 1.445313 1.359376 3.292969 2.03125 5.132813 2.03125 2 0 3.992187-.792968 5.46875-2.363281 5.300781-5.648437 8.21875-13.019531 8.21875-20.761719v-1.835937h37.132812zm0 0"/><path d="m30.0625 222.953125h1.257812c5.25 11.128906 16.457032 18.265625 28.816407 18.265625 12.371093 0 23.574219-7.140625 28.808593-18.265625h107.667969c9.347657 0 17.289063-6.03125 20.195313-14.398437 6.375 4.644531 14.164062 7.308593 22.390625 7.308593 10.140625 0 19.617187-4.039062 26.59375-10.867187 1.652343 10.164062 10.464843 17.957031 21.089843 17.957031h107.671876c5.246093 11.125 16.449218 18.265625 28.804687 18.265625 12.363281 0 23.570313-7.140625 28.816406-18.265625h1.257813c11.792968 0 21.390625-9.59375 21.390625-21.386719v-117.867187c0-11.792969-9.597657-21.386719-21.390625-21.386719h-60.792969c-4.144531 0-7.5 3.359375-7.5 7.5 0 4.144531 3.355469 7.5 7.5 7.5h60.792969c3.523437 0 6.390625 2.867188 6.390625 6.386719v117.871093c0 3.519532-2.867188 6.382813-6.390625 6.382813h-2.160156c-5.414063 0-10.300782 3.191406-12.453126 8.136719-2.679687 6.152344-8.75 10.128906-15.460937 10.128906-6.707031 0-12.769531-3.976562-15.453125-10.132812-2.152344-4.9375-7.039062-8.132813-12.453125-8.132813h-108.570313c-3.523437 0-6.390624-2.863281-6.390624-6.382813v-8.609374h63.125c13.742187 0 24.921874-11.179688 24.921874-24.917969v-143.125c.003907-13.738281-11.179687-24.917969-24.921874-24.917969h-208.835938c-13.746094 0-24.925781 11.179688-24.925781 24.917969v37.394531h-79.792969c-11.792969 0-21.390625 9.59375-21.390625 21.386719v10.644531c0 4.140625 3.359375 7.5 7.5 7.5 4.144531 0 7.5-3.359375 7.5-7.5v-10.644531c0-3.519531 2.867187-6.386719 6.390625-6.386719h79.792969v90.730469c0 13.738281 11.179687 24.917969 24.925781 24.917969h68.222656v8.609374c0 3.519532-2.867187 6.382813-6.390625 6.382813h-108.5625c-5.417969 0-10.308593 3.191406-12.464843 8.140625-2.671876 6.148438-8.734376 10.125-15.449219 10.125-6.710938 0-12.78125-3.976562-15.460938-10.132812-2.152343-4.9375-7.039062-8.132813-12.453125-8.132813h-2.160156c-3.523438 0-6.390625-2.863281-6.390625-6.382813v-75.640624c0-4.144532-3.355469-7.5-7.5-7.5-4.140625 0-7.5 3.355468-7.5 7.5v75.640624c0 11.789063 9.597656 21.382813 21.390625 21.382813zm94.792969-54.910156v-143.125c0-5.46875 4.453125-9.917969 9.925781-9.917969h208.835938c5.472656 0 9.921874 4.449219 9.921874 9.917969v143.125c0 5.46875-4.449218 9.917969-9.921874 9.917969h-69.417969c-.871094 0-1.730469.082031-2.570313.226562-.070312.011719-.144531.023438-.214844.039062-4.878906.90625-9.070312 4.152344-11.089843 8.792969-3.65625 8.410157-11.949219 13.84375-21.125 13.84375-9.171875 0-17.464844-5.433593-21.125-13.84375-2.394531-5.503906-7.839844-9.058593-13.875-9.058593h-69.417969c-5.472656 0-9.925781-4.449219-9.925781-9.917969zm0 0"/><path d="m156.054688 57.753906h162.210937c4.140625 0 7.5-3.355468 7.5-7.5 0-4.144531-3.359375-7.5-7.5-7.5h-162.210937c-4.140626 0-7.5 3.355469-7.5 7.5 0 4.144532 3.359374 7.5 7.5 7.5zm0 0"/><path d="m156.054688 96.289062h162.210937c4.140625 0 7.5-3.355468 7.5-7.5 0-4.140624-3.359375-7.5-7.5-7.5h-162.210937c-4.140626 0-7.5 3.359376-7.5 7.5 0 4.144532 3.359374 7.5 7.5 7.5zm0 0"/><path d="m251.09375 127.328125c0-4.144531-3.359375-7.5-7.5-7.5h-87.539062c-4.140626 0-7.5 3.355469-7.5 7.5 0 4.140625 3.359374 7.5 7.5 7.5h87.539062c4.140625 0 7.5-3.359375 7.5-7.5zm0 0"/></svg>