<?xml version="1.0" encoding="iso-8859-1"?>
<!-- Generator: Adobe Illustrator 19.0.0, SVG Export Plug-In . SVG Version: 6.00 Build 0)  -->
<svg version="1.1" id="Capa_1" xmlns="http://www.w3.org/2000/svg" xmlns:xlink="http://www.w3.org/1999/xlink" x="0px" y="0px"
	 viewBox="0 0 511.999 511.999" style="enable-background:new 0 0 511.999 511.999;" xml:space="preserve">
<path style="fill:#5C414B;" d="M363.354,140.386v-30c0-57.806-44.423-107.545-102.165-110.264
	c-61.65-2.903-112.545,46.221-112.545,107.232v33.032c0,55.575-9.235,88.063-13.894,100.917c-1.389,3.831,0.276,8.072,3.874,9.986
	c16.456,8.754,61.291,31.148,100.859,37.742h33.032c39.568-6.595,84.403-28.989,100.859-37.742c3.598-1.914,5.262-6.155,3.874-9.986
	C372.589,228.449,363.354,195.961,363.354,140.386z"/>
<path style="fill:#503441;" d="M148.644,107.354v33.032c0,55.573-9.234,88.06-13.893,100.915c-1.393,3.843,0.308,8.09,3.917,10.008
	c15.352,8.158,55.226,28.083,92.556,36.114V123.87l-16.516-16.516c-27.471-27.471-29.331-62.166-27.515-82.37
	C163.644,44.676,148.644,74.254,148.644,107.354z"/>
<rect x="214.709" y="231.229" style="fill:#E6AF78;" width="82.58" height="107.36"/>
<path style="fill:#FFDC64;" d="M375.229,308.583l-43.965-19.551l-58.749,24.774l-9.645,14.467c-3.269,4.903-10.473,4.903-13.742,0
	l-9.645-14.467l-57.85-24.774l-43.965,19.551c-18.343,8.157-29.952,26.577-29.396,46.644l4.339,156.772h287.675l4.339-156.772
	C405.18,335.159,393.572,316.74,375.229,308.583z"/>
<g>
	<path style="fill:#FFF082;" d="M163.509,371.612l-41.486-51.857c-8.932,9.378-14.123,22.013-13.751,35.472l4.339,156.772h50.898
		V371.612z"/>
	<path style="fill:#FFF082;" d="M349.388,371.612l41.486-51.857c8.932,9.378,14.124,22.013,13.751,35.472l-4.339,156.772h-50.898
		L349.388,371.612L349.388,371.612z"/>
</g>
<path style="fill:#D29B6E;" d="M214.709,255.212c12.635,5.802,26.63,9.045,41.29,9.045c14.661,0,28.656-3.242,41.29-9.045v-23.987
	h-82.58V255.212z"/>
<path style="fill:#F0C087;" d="M334.217,191.202c2.129-6.68,3.33-13.658,3.51-20.667c1.219-47.528-65.345-36.399-120.03-72.38
	c-3.81-2.507-8.888-1.708-11.492,2.037c-8.641,12.432-18.421,22.261-24.188,27.566c-3.062,2.817-7.035,4.369-11.196,4.369h-5.942
	c-0.005,0-0.008,0.003-0.013,0.003c-0.906,0.017-1.833,0.112-2.776,0.295c-8.037,1.556-13.447,9.246-13.447,17.432v5.974
	c0,7.9,5.058,15.353,12.751,17.147c1.732,0.404,3.417,0.518,5.031,0.39c4.106-0.328,7.691,2.66,8.43,6.712
	c7.021,38.477,40.637,67.661,81.143,67.661c34.424,0,63.805-21.112,76.182-51.059C332.777,195.224,334.099,191.557,334.217,191.202z
	"/>
<path style="fill:#E6AF78;" d="M206.45,165.16V99.887c-8.704,12.575-18.617,22.522-24.432,27.872
	c-3.062,2.817-7.035,4.369-11.196,4.369h-5.942c-0.005,0-0.008,0.003-0.013,0.003c-0.905,0.017-1.83,0.112-2.771,0.294
	c-8.037,1.553-13.453,9.236-13.453,17.422v5.984c0,7.899,5.057,15.351,12.75,17.147c1.732,0.404,3.418,0.519,5.032,0.39
	c4.106-0.328,7.691,2.66,8.43,6.712c7.021,38.477,40.637,67.661,81.143,67.661c5.615,0,11.078-0.613,16.375-1.681
	C234.751,238.353,206.45,205.062,206.45,165.16z"/>
<path style="fill:#C39772;" d="M437.676,511.999H74.322c-4.565,0-8.258-3.698-8.258-8.258s3.694-8.258,8.258-8.258h363.355
	c4.565,0,8.258,3.698,8.258,8.258S442.241,511.999,437.676,511.999z"/>
<g>
	<path style="fill:#FFF082;" d="M197.6,320.879l-15.924-31.848l17.948-15.33c3.674-3.139,9.247-2.465,12.068,1.458l27.791,38.647
		l-17.2,12.9C214.039,332.888,202.209,330.096,197.6,320.879z"/>
	<path style="fill:#FFF082;" d="M314.398,320.879l15.924-31.848l-17.948-15.33c-3.674-3.139-9.247-2.465-12.068,1.458
		l-27.791,38.647l17.2,12.9C297.959,332.888,309.789,330.096,314.398,320.879z"/>
</g>
<path style="fill:#DBD9DC;" d="M347.781,495.483H164.217c-8.745,0-15.974-6.816-16.488-15.546l-6.315-107.355
	c-0.558-9.487,6.985-17.486,16.488-17.486h196.193c9.503,0,17.046,7.999,16.488,17.486l-6.315,107.355
	C363.755,488.666,356.526,495.483,347.781,495.483z"/>
<circle style="fill:#FFFFFF;" cx="255.999" cy="429.419" r="20.645"/>
<g>
</g>
<g>
</g>
<g>
</g>
<g>
</g>
<g>
</g>
<g>
</g>
<g>
</g>
<g>
</g>
<g>
</g>
<g>
</g>
<g>
</g>
<g>
</g>
<g>
</g>
<g>
</g>
<g>
</g>
</svg>
