<svg height="512" viewBox="0 0 512 512" width="512" xmlns="http://www.w3.org/2000/svg"><g id="Thinking_Face" data-name="Thinking Face"><g id="Filled"><path d="m8 216c0 128.13 127.033 288 264 288s232-119.87 232-248-95.033-248-232-248-264 71-264 208z" fill="#ffcc80"/><path d="m478.788 143.852c-14.127 165.898-153.233 296.148-322.788 296.148a325.735 325.735 0 0 1 -38.085-2.242c44.499 39.886 98.473 66.242 154.085 66.242 136.967 0 232-119.87 232-248a263.212 263.212 0 0 0 -25.212-112.148z" fill="#ffb74d"/><path d="m102.607 327.746a16 16 0 0 0 13.706 24.254h136.826c10.27 0 19.037 8.824 19.38 19.088.359 10.73-8.234 20.912-18.884 20.912h-56.685v26.973a85.027 85.027 0 0 1 -85.027 85.027 103.923 103.923 0 0 1 -103.923-103.922 123.1 123.1 0 0 1 31.6-82.348l41.209-45.788a23.987 23.987 0 0 1 28.555-5.408 23.986 23.986 0 0 1 10.727 32.18z" fill="#f5f5f5"/><circle cx="336" cy="148" fill="#fff" r="16"/><circle cx="176" cy="132" fill="#fff" r="16"/><path d="m196.867 422.238a144.019 144.019 0 0 1 -171.427 35.476 103.821 103.821 0 0 0 86.482 46.286 85.014 85.014 0 0 0 84.945-81.762z" fill="#e5e5e5"/><g fill="#ffe4c0"><circle cx="104" cy="176" r="24"/><circle cx="408" cy="176" r="24"/></g></g><g id="Outline" fill="#231f20"><path d="m312 148a24 24 0 1 0 24-24 24.027 24.027 0 0 0 -24 24zm32 0a8 8 0 1 1 -8-8 8.009 8.009 0 0 1 8 8z"/><path d="m152 132a24 24 0 1 0 24-24 24.027 24.027 0 0 0 -24 24zm32 0a8 8 0 1 1 -8-8 8.009 8.009 0 0 1 8 8z"/><path d="m204.95 418.97v-18.97h48.69a26.25 26.25 0 0 0 19.27-8.81 29.108 29.108 0 0 0 7.62-19.45c0-.24-.01-.57-.01-.91a27.836 27.836 0 0 0 -8.34-18.81 26.948 26.948 0 0 0 -19.04-8.02h-136.83a7.774 7.774 0 0 1 -5.741-2.42 8.215 8.215 0 0 1 -2.279-5.61 7.872 7.872 0 0 1 1.14-4.06v.01l17.679-29.36.141-.27a32 32 0 0 0 -28.59-46.29h-.03a32.035 32.035 0 0 0 -23.771 10.59l-41.21 45.79a131.083 131.083 0 0 0 -33.649 87.7 111.845 111.845 0 0 0 111.92 111.92 92.952 92.952 0 0 0 93.03-93.03zm-16-34.97h-20.341a8 8 0 0 0 0 16h20.341v16.138a8.054 8.054 0 0 0 -1.45-.138h-28.34a8 8 0 1 0 0 16h28.34c.114 0 .225-.012.338-.017a76.157 76.157 0 0 1 -8.717 24.652 7.955 7.955 0 0 0 -3.121-.635h-37.79a8 8 0 0 0 0 16h29.549c-.456.48-.9.969-1.369 1.44a76.594 76.594 0 0 1 -54.47 22.56 95.922 95.922 0 0 1 -95.92-95.92 114.9 114.9 0 0 1 29.55-77l41.2-45.79a16.035 16.035 0 0 1 11.9-5.29 16 16 0 0 1 15.981 16 16.036 16.036 0 0 1 -1.57 6.89l-17.311 28.73-.021.03a23.81 23.81 0 0 0 -3.439 12.32 24.084 24.084 0 0 0 6.72 16.67 23.792 23.792 0 0 0 17.23 7.36h136.92a11.081 11.081 0 0 1 7.76 3.38 11.9 11.9 0 0 1 3.6 7.97c.01.11.01.24.01.39a13.272 13.272 0 0 1 -3.45 8.68 10.224 10.224 0 0 1 -7.431 3.58h-64.7z"/><path d="m77.72 76.93h.009a8 8 0 0 0 5.021-1.78l.01-.01a8 8 0 0 0 -5.04-14.21 8.039 8.039 0 0 0 -5.04 1.79 8 8 0 0 0 5.04 14.21z"/><path d="m20.83 298.75a7.88 7.88 0 0 0 2.5-.4 8.01 8.01 0 0 0 5.1-10.1c-8.25-25.06-12.43-49.37-12.43-72.25.04-46.44 15.02-86.72 44.5-119.72a8 8 0 0 0 -11.91-10.67 187.249 187.249 0 0 0 -35.67 58.08 200.526 200.526 0 0 0 -12.92 72.31c0 24.58 4.45 50.58 13.229 77.25a7.988 7.988 0 0 0 7.601 5.5z"/><path d="m507.52 207.11a273.631 273.631 0 0 0 -13.02-46.74 269.174 269.174 0 0 0 -20.931-43.26 258.387 258.387 0 0 0 -28.229-38.47 242.494 242.494 0 0 0 -34.89-32.32 230.72 230.72 0 0 0 -40.98-24.81 227.129 227.129 0 0 0 -97.37-21.51h-.1a377.638 377.638 0 0 0 -91.49 10.95c-29.75 7.44-56.91 18.48-80.72 32.81a8 8 0 0 0 4.13 14.85 8 8 0 0 0 4.12-1.15c44.36-26.74 102.56-41.46 163.87-41.46h.09c62.04.03 119.35 26.05 161.39 73.27 39.799 44.75 62.62 105.52 62.61 166.73.01 61.21-22.811 121.98-62.61 166.73-42.04 47.22-99.36 73.24-161.39 73.27-21.48 0-43.44-4.14-65.271-12.29a7.876 7.876 0 0 0 -2.8-.51 8 8 0 0 0 -2.8 15.5l.22.07c23.561 8.78 47.331 13.23 70.651 13.23h.09l.01-.05v.05a227.129 227.129 0 0 0 97.37-21.51 230.72 230.72 0 0 0 40.98-24.81 242.494 242.494 0 0 0 34.89-32.32 258.3 258.3 0 0 0 28.229-38.46 269.685 269.685 0 0 0 20.931-43.27 273.631 273.631 0 0 0 13.02-46.74 269.007 269.007 0 0 0 0-97.78z"/><path d="m229.12 77.85c-5.681-4.68-13.431-8.16-23.67-10.63a136.284 136.284 0 0 0 -58.9 0c-10.25 2.47-17.99 5.95-23.67 10.63a8 8 0 0 0 10.24 12.3c3.41-2.9 9.81-5.66 17.13-7.37a114.881 114.881 0 0 1 25.72-2.78h.06a114.79 114.79 0 0 1 25.71 2.78c7.329 1.71 13.73 4.47 17.14 7.37a8 8 0 0 0 10.24-12.3z"/><path d="m389.12 94.15a8 8 0 0 0 -10.24-12.3c-2.93 2.61-10.87 5.66-19.75 7.6-14.811 3.38-33.34 4.97-46.28 5.72-5.88.34-11.871.59-17.82.73-2.32.05-4.11.08-5.2.09-1.19.01-1.81.01-1.83.01a8 8 0 0 0 0 16h.069c2.061-.01 20.721-.12 41.471-2.03a262.091 262.091 0 0 0 33.13-4.92c9.51-2.24 19.29-5.11 26.45-10.9z"/><path d="m208 248a8 8 0 0 0 8 8h48a8 8 0 0 0 0-16h-48a8 8 0 0 0 -8 8z"/></g></g></svg>