<?xml version="1.0" encoding="iso-8859-1"?>
<!-- Generator: Adobe Illustrator 19.0.0, SVG Export Plug-In . SVG Version: 6.00 Build 0)  -->
<svg version="1.1" id="Capa_1" xmlns="http://www.w3.org/2000/svg" xmlns:xlink="http://www.w3.org/1999/xlink" x="0px" y="0px"
	 viewBox="0 0 512 512" style="enable-background:new 0 0 512 512;" xml:space="preserve">
<circle style="fill:#FEDB41;" cx="256" cy="256" r="256"/>
<path style="fill:#FEA832;" d="M511.28,275.28L374.5,138.5l-24.346-13.998l-43-43.108L219.667,92l-14.821,31L123,184.385
	l61.641,61.641l-19.9,184.579l81.179,81.179c3.346,0.13,6.702,0.216,10.079,0.216C390.899,512,501.423,407.658,511.28,275.28z"/>
<path style="fill:#8B8892;" d="M204.846,81.395v62.067h102.308V81.395H204.846z M286.692,123h-61.385v-21.144h61.385V123z"/>
<polygon style="fill:#787780;" points="307.154,81.395 307.154,143.462 256,143.462 256,123 286.692,123 286.692,101.856 
	256,101.856 256,81.395 "/>
<path style="fill:#AEADB3;" d="M142.439,163.923l22.302,266.682h182.518l22.302-266.682H142.439z"/>
<polygon style="fill:#8B8892;" points="369.561,163.923 347.259,430.605 256,430.605 256,163.923 "/>
<g>
	<path style="fill:#E5E5E5;" d="M337.846,123H174.154C145.917,123,123,145.917,123,174.154v10.231h266v-10.231
		C389,145.917,366.083,123,337.846,123z"/>
	<rect x="245.77" y="225.31" style="fill:#E5E5E5;" width="20.462" height="164.37"/>
</g>
<rect x="286.69" y="225.31" style="fill:#C8C6CD;" width="20.462" height="164.37"/>
<rect x="204.85" y="225.31" style="fill:#E5E5E5;" width="20.462" height="164.37"/>
<g>
	<rect x="256" y="225.31" style="fill:#C8C6CD;" width="10.231" height="164.37"/>
	<path style="fill:#C8C6CD;" d="M389,174.154v10.231H256V123h81.846C366.083,123,389,145.917,389,174.154z"/>
</g>
<g>
</g>
<g>
</g>
<g>
</g>
<g>
</g>
<g>
</g>
<g>
</g>
<g>
</g>
<g>
</g>
<g>
</g>
<g>
</g>
<g>
</g>
<g>
</g>
<g>
</g>
<g>
</g>
<g>
</g>
</svg>
